<svg xmlns="http://www.w3.org/2000/svg" xmlns:xlink="http://www.w3.org/1999/xlink" width="895" zoomAndPan="magnify" viewBox="0 0 671.25 143.999998" height="192" preserveAspectRatio="xMidYMid meet" version="1.2"><defs><clipPath id="2cf44d2534"><path d="M 0 0.0820312 L 670.5 0.0820312 L 670.5 143.917969 L 0 143.917969 Z M 0 0.0820312 "/></clipPath><clipPath id="0c260b01e3"><path d="M 261.179688 5.742188 L 393.6875 5.742188 L 393.6875 138.25 L 261.179688 138.25 Z M 261.179688 5.742188 "/></clipPath><clipPath id="3b150adfdd"><path d="M 327.433594 5.742188 C 290.84375 5.742188 261.179688 35.40625 261.179688 71.996094 C 261.179688 108.589844 290.84375 138.25 327.433594 138.25 C 364.023438 138.25 393.6875 108.589844 393.6875 71.996094 C 393.6875 35.40625 364.023438 5.742188 327.433594 5.742188 Z M 327.433594 5.742188 "/></clipPath><clipPath id="7468bf4326"><path d="M 348.597656 33.996094 L 405.132812 33.996094 L 405.132812 114.074219 L 348.597656 114.074219 Z M 348.597656 33.996094 "/></clipPath><clipPath id="b832a1720a"><path d="M 355 17 L 390 17 L 390 51 L 355 51 Z M 355 17 "/></clipPath><clipPath id="6ae0d28b16"><path d="M 355.617188 35.414062 L 373.964844 17.066406 L 389.472656 32.574219 L 371.125 50.921875 Z M 355.617188 35.414062 "/></clipPath><clipPath id="03e4d75047"><path d="M 286.914062 10.230469 L 409.027344 10.230469 L 409.027344 104.625 L 286.914062 104.625 Z M 286.914062 10.230469 "/></clipPath></defs><g id="4ff810b30f"><g clip-rule="nonzero" clip-path="url(#2cf44d2534)"><path style=" stroke:none;fill-rule:nonzero;fill:#ffffff;fill-opacity:1;" d="M 0 0.0820312 L 670.5 0.0820312 L 670.5 143.917969 L 0 143.917969 Z M 0 0.0820312 "/><path style=" stroke:none;fill-rule:nonzero;fill:#ffffff;fill-opacity:1;" d="M 0 0.0820312 L 670.5 0.0820312 L 670.5 143.917969 L 0 143.917969 Z M 0 0.0820312 "/></g><g clip-rule="nonzero" clip-path="url(#0c260b01e3)"><g clip-rule="nonzero" clip-path="url(#3b150adfdd)"><path style="fill:none;stroke-width:46;stroke-linecap:butt;stroke-linejoin:miter;stroke:#1a79b3;stroke-opacity:1;stroke-miterlimit:4;" d="M 88.438362 -0.00143158 C 39.597392 -0.00143158 0.00111477 39.594846 0.00111477 88.435816 C 0.00111477 137.282001 39.597392 176.873064 88.438362 176.873064 C 137.279333 176.873064 176.87561 137.282001 176.87561 88.435816 C 176.87561 39.594846 137.279333 -0.00143158 88.438362 -0.00143158 Z M 88.438362 -0.00143158 " transform="matrix(0.749163,0,0,0.749163,261.178852,5.74326)"/></g></g><g clip-rule="nonzero" clip-path="url(#7468bf4326)"><path style=" stroke:none;fill-rule:nonzero;fill:#ffffff;fill-opacity:1;" d="M 348.597656 33.996094 L 405.132812 33.996094 L 405.132812 114.164062 L 348.597656 114.164062 Z M 348.597656 33.996094 "/></g><g clip-rule="nonzero" clip-path="url(#b832a1720a)"><g clip-rule="nonzero" clip-path="url(#6ae0d28b16)"><path style=" stroke:none;fill-rule:nonzero;fill:#ffffff;fill-opacity:1;" d="M 355.617188 35.414062 L 373.972656 17.058594 L 389.480469 32.566406 L 371.125 50.921875 Z M 355.617188 35.414062 "/></g></g><g clip-rule="nonzero" clip-path="url(#03e4d75047)"><path style=" stroke:none;fill-rule:nonzero;fill:#10c610;fill-opacity:1;" d="M 323.007812 74.792969 C 324.699219 76.484375 327.445312 76.484375 329.136719 74.792969 L 390.671875 13.242188 C 392.679688 11.234375 395.234375 10.230469 398.339844 10.230469 C 401.441406 10.230469 403.996094 11.234375 406.003906 13.242188 C 408.011719 15.25 409.015625 17.804688 409.015625 20.910156 C 409.015625 24.011719 408.011719 26.566406 406.003906 28.574219 L 333.738281 100.855469 C 331.546875 103.046875 328.992188 104.140625 326.074219 104.140625 C 323.152344 104.140625 320.597656 103.046875 318.40625 100.855469 L 289.941406 72.382812 C 287.933594 70.375 286.929688 67.820312 286.929688 64.714844 C 286.929688 61.613281 287.933594 59.058594 289.941406 57.050781 C 291.945312 55.042969 294.5 54.039062 297.605469 54.039062 C 300.707031 54.039062 303.261719 55.042969 305.269531 57.050781 Z M 323.007812 74.792969 "/></g></g></svg>